<svg width="228" height="86" viewBox="0 0 228 86" fill="none" xmlns="http://www.w3.org/2000/svg">
<path d="M8.46901 76.9884C7.3148 76.9884 6.30486 76.9194 5.4392 76.7815C4.5543 76.6633 3.80406 76.5155 3.18848 76.3381V68.7124C3.80406 68.8504 4.46773 68.9785 5.1795 69.0967C5.87203 69.2346 6.61265 69.3036 7.40136 69.3036C8.44016 69.3036 9.37315 69.0967 10.2003 68.6829C11.0275 68.2888 11.6816 67.5302 12.1625 66.407C12.6434 65.2838 12.8839 63.6681 12.8839 61.5597V21.0667H21.8291V61.5006C21.8291 65.205 21.2616 68.1903 20.1266 70.4563C19.0108 72.742 17.443 74.3972 15.4232 75.4219C13.4225 76.4662 11.1045 76.9884 8.46901 76.9884Z" fill="#3A659C"/>
<circle cx="17.1699" cy="11.7466" r="4.66015" fill="#3A659C"/>
<path fill-rule="evenodd" clip-rule="evenodd" d="M26.4443 67.4508H34.3239C38.13 67.4508 41.4087 66.9196 44.1601 65.8571C46.9344 64.7733 49.0667 63.2221 50.5571 61.2033C52.0474 59.1845 52.7926 56.762 52.7926 53.9358C52.7926 51.492 52.3798 49.537 51.5544 48.0707C50.7519 46.5832 49.6743 45.457 48.3216 44.692C46.9688 43.9057 45.4555 43.3532 43.7818 43.0345V42.7157C45.4326 42.4395 46.8312 41.8445 47.9776 40.9307C49.124 40.0169 49.9953 38.8482 50.5914 37.4244C51.2105 36.0007 51.52 34.4069 51.52 32.6432C51.52 28.2656 49.8004 25.2056 46.3612 23.4631C42.922 21.7206 37.8549 20.8494 31.1599 20.8494H26.4443V28.9457H31.7789C34.8284 28.9457 37.0524 29.3388 38.451 30.125C39.8725 30.89 40.5833 32.165 40.5833 33.95C40.5833 35.7138 39.9872 37.0526 38.7949 37.9663C37.6027 38.8588 35.4589 39.3051 32.3636 39.3051H26.4443V47.1464H32.7763C35.0462 47.1464 36.8231 47.3907 38.1071 47.8795C39.414 48.3682 40.3426 49.0482 40.8928 49.9195C41.4431 50.7907 41.7183 51.8001 41.7183 52.9476C41.7183 54.8814 41.0877 56.422 39.8267 57.5695C38.5656 58.717 36.3301 59.2908 33.1202 59.2908H26.4443V67.4508Z" fill="#3A659C"/>
<path d="M74.035 64.6328C73.3431 64.6328 72.7394 64.5888 72.2236 64.5008C71.6953 64.4253 71.2425 64.3184 70.8651 64.18V60.3875C71.2676 60.4881 71.7016 60.5762 72.167 60.6517C72.6324 60.7271 73.1293 60.7649 73.6576 60.7649C74.3494 60.7649 74.9784 60.6328 75.5444 60.3686C76.1105 60.1045 76.557 59.6265 76.8841 58.9346C77.2237 58.2428 77.3935 57.268 77.3935 56.0101V29.3682H81.9219V55.8591C81.9219 57.9095 81.5948 59.5762 80.9407 60.8592C80.2866 62.1548 79.3684 63.1045 78.186 63.7083C77.0036 64.3247 75.6199 64.6328 74.035 64.6328ZM110.013 56.9535L107.315 49.293H96.7674L94.0692 56.9535H89.2956L99.5598 29.255H104.579L114.824 56.9535H110.013ZM106.145 45.4062L103.522 37.8589C103.422 37.5319 103.277 37.0727 103.088 36.4815C102.9 35.8777 102.711 35.2677 102.522 34.6513C102.333 34.0224 102.176 33.4941 102.05 33.0664C101.925 33.5821 101.767 34.1607 101.579 34.8023C101.403 35.4312 101.227 36.0224 101.05 36.5759C100.887 37.1293 100.761 37.557 100.673 37.8589L98.0315 45.4062H106.145ZM122.33 29.3682H130.538C134.097 29.3682 136.783 29.884 138.594 30.9154C140.406 31.9469 141.311 33.7268 141.311 36.2551C141.311 37.3117 141.123 38.2677 140.745 39.1231C140.381 39.9658 139.846 40.664 139.142 41.2174C138.437 41.7583 137.569 42.1231 136.538 42.3118V42.5005C137.607 42.6892 138.557 43.0225 139.387 43.5005C140.23 43.9785 140.89 44.664 141.368 45.5571C141.859 46.4502 142.104 47.6075 142.104 49.0289C142.104 50.7144 141.701 52.1484 140.896 53.3308C140.104 54.5132 138.965 55.4126 137.481 56.029C136.009 56.6453 134.261 56.9535 132.236 56.9535H122.33V29.3682ZM126.858 40.7457H131.198C133.248 40.7457 134.67 40.4124 135.462 39.7457C136.255 39.079 136.651 38.1042 136.651 36.8211C136.651 35.513 136.179 34.5695 135.236 33.9909C134.305 33.4123 132.821 33.123 130.783 33.123H126.858V40.7457ZM126.858 44.4062V53.161H131.632C133.745 53.161 135.229 52.7522 136.085 51.9346C136.94 51.1169 137.368 50.01 137.368 48.6138C137.368 47.7584 137.173 47.0163 136.783 46.3873C136.406 45.7584 135.783 45.2741 134.915 44.9345C134.047 44.5823 132.877 44.4062 131.406 44.4062H126.858ZM168.761 56.9535L166.063 49.293H155.515L152.817 56.9535H148.044L158.308 29.255H163.327L173.572 56.9535H168.761ZM164.893 45.4062L162.27 37.8589C162.169 37.5319 162.025 37.0727 161.836 36.4815C161.647 35.8777 161.459 35.2677 161.27 34.6513C161.081 34.0224 160.924 33.4941 160.798 33.0664C160.673 33.5821 160.515 34.1607 160.327 34.8023C160.151 35.4312 159.974 36.0224 159.798 36.5759C159.635 37.1293 159.509 37.557 159.421 37.8589L156.779 45.4062H164.893ZM181.078 56.9535V29.3682H185.606V53.1044H197.323V56.9535H181.078ZM223.056 56.9535L220.358 49.293H209.81L207.112 56.9535H202.339L212.603 29.255H217.622L227.867 56.9535H223.056ZM219.188 45.4062L216.565 37.8589C216.465 37.5319 216.32 37.0727 216.131 36.4815C215.943 35.8777 215.754 35.2677 215.565 34.6513C215.376 34.0224 215.219 33.4941 215.093 33.0664C214.968 33.5821 214.81 34.1607 214.622 34.8023C214.446 35.4312 214.27 36.0224 214.093 36.5759C213.93 37.1293 213.804 37.557 213.716 37.8589L211.075 45.4062H219.188Z" fill="#3A659C"/>
</svg>
