<svg width="189" height="42" viewBox="0 0 189 42" fill="none" xmlns="http://www.w3.org/2000/svg">
<path d="M16.34 12.73C18.05 13.68 19.19 15.01 20.14 16.53C21.09 18.24 21.47 19.95 21.47 22.04C21.47 24.13 21.09 25.84 20.14 27.55C19.19 29.26 18.05 30.4 16.53 31.35C15.01 32.3 13.3 32.68 11.4 32.68C9.88 32.68 8.55 32.3 7.22 31.73C5.89 31.16 4.75 30.21 3.99 29.07V39.71C3.99 40.28 3.8 40.85 3.42 41.23C3.04 41.61 2.66 41.8 1.9 41.8C1.33 41.8 0.95 41.61 0.57 41.23C0.19 40.85 0 40.47 0 39.71V22.04C0 19.95 0.38 18.24 1.33 16.53C2.28 14.82 3.61 13.68 5.13 12.73C7.03 11.78 8.93 11.21 11.02 11.21C13.11 11.21 14.82 11.78 16.34 12.73ZM14.44 28.31C15.58 27.74 16.34 26.79 16.91 25.65C17.48 24.51 17.86 23.37 17.86 21.85C17.86 20.52 17.48 19.19 16.91 18.05C16.34 16.91 15.39 16.15 14.44 15.39C13.3 14.82 12.16 14.44 10.83 14.44C9.5 14.44 8.55 15.01 7.41 15.77C6.27 16.34 5.51 17.29 4.94 18.43C4.37 19.57 3.99 20.71 3.99 22.23C3.99 23.56 4.37 24.89 4.94 26.03C5.51 27.17 6.27 27.93 7.41 28.69C8.55 29.26 9.69 29.64 11.02 29.64C12.35 29.64 13.49 29.07 14.44 28.31Z" fill="#F2BC2B"/>
<path d="M46.1701 22.99C45.7901 23.37 45.4101 23.56 44.8401 23.56H30.0201C30.4001 25.46 31.1601 26.79 32.4901 27.93C33.8201 29.07 35.5301 29.64 37.4301 29.64C38.1901 29.64 38.9501 29.45 39.9001 29.26C40.6601 28.88 41.4201 28.69 41.9901 28.12C42.3701 27.74 42.7501 27.74 43.3201 27.74C43.8901 27.74 44.2701 27.93 44.4601 28.12C44.8401 28.5 45.2201 28.88 45.2201 29.45C45.2201 29.83 45.0301 30.4 44.6501 30.59C43.7001 31.35 42.7501 31.92 41.4201 32.3C40.0901 32.68 38.9501 32.87 37.6201 32.87C35.5301 32.87 33.6301 32.49 31.9201 31.54C30.2101 30.59 28.8801 29.26 27.9301 27.74C26.9801 26.03 26.6001 24.32 26.6001 22.23C26.6001 20.14 26.9801 18.24 27.9301 16.72C28.8801 15.01 30.0201 13.87 31.7301 12.92C33.2501 11.97 35.1501 11.59 37.2401 11.59C39.3301 11.59 41.0401 11.97 42.3701 12.92C43.8901 13.87 45.0301 15.01 45.7901 16.53C46.5501 18.05 46.9301 19.95 46.9301 22.04C46.7401 22.23 46.5501 22.61 46.1701 22.99ZM32.4901 16.15C31.3501 17.1 30.5901 18.62 30.2101 20.33H43.1301C42.9401 18.62 42.1801 17.29 41.2301 16.15C40.0901 15.2 38.7601 14.63 37.0501 14.63C35.1501 14.63 33.6301 15.01 32.4901 16.15Z" fill="#F2BC2B"/>
<path d="M61.94 29.26C62.32 29.64 62.51 30.02 62.51 30.59C62.51 31.16 62.32 31.54 61.94 31.92C61.56 32.3 60.99 32.49 60.23 32.49H59.47C58.14 32.49 57 32.11 56.05 31.54C54.91 30.97 54.15 30.02 53.58 28.88C53.01 27.74 52.63 26.41 52.63 25.08V15.39H50.92C50.35 15.39 49.97 15.2 49.59 15.01C49.21 14.63 49.02 14.25 49.02 13.87C49.02 13.3 49.21 12.92 49.59 12.54C49.97 12.16 50.35 12.16 50.92 12.16H52.63V6.65C52.63 6.08 52.82 5.70001 53.2 5.32001C53.58 4.94001 53.96 4.75 54.53 4.75C55.1 4.75 55.48 4.94001 55.86 5.32001C56.24 5.70001 56.43 6.08 56.43 6.65V12.16H59.66C60.23 12.16 60.61 12.35 60.99 12.54C61.37 12.92 61.56 13.3 61.56 13.87C61.56 14.25 61.37 14.82 60.99 15.01C60.61 15.39 60.23 15.39 59.66 15.39H56.43V25.08C56.43 26.03 56.81 26.98 57.38 27.74C57.95 28.5 58.71 28.88 59.47 28.88H60.8C61.37 28.69 61.75 28.88 61.94 29.26Z" fill="#F2BC2B"/>
<path d="M106.59 13.49C107.92 15.01 108.68 17.1 108.68 19.76V30.97C108.68 31.54 108.49 32.11 108.11 32.3C107.73 32.68 107.35 32.87 106.59 32.87C106.02 32.87 105.45 32.68 105.26 32.3C104.88 31.92 104.69 31.54 104.69 30.97V19.76C104.69 18.24 104.31 16.91 103.55 16.15C102.79 15.39 101.65 15.01 100.32 15.01C98.9902 15.01 97.8502 15.39 96.9002 16.34C95.9502 17.29 95.5702 18.43 95.5702 19.95V30.97C95.5702 31.54 95.3802 32.11 95.0002 32.3C94.6202 32.68 94.2402 32.87 93.4802 32.87C92.9102 32.87 92.3402 32.68 92.1502 32.3C91.7702 31.92 91.5802 31.54 91.5802 30.97V19.76C91.5802 18.24 91.2002 16.91 90.4402 16.15C89.6802 15.39 88.5402 15.01 87.2102 15.01C85.8802 15.01 84.7402 15.39 83.7902 16.34C82.8402 17.29 82.4602 18.43 82.4602 19.95V30.97C82.4602 31.54 82.2702 32.11 81.8902 32.3C81.5102 32.68 81.1302 32.87 80.3702 32.87C79.8002 32.87 79.2302 32.68 79.0402 32.3C78.6602 31.92 78.4702 31.54 78.4702 30.97V13.68C78.4702 13.11 78.6602 12.54 79.0402 12.16C79.4202 11.78 79.8002 11.59 80.3702 11.59C80.9402 11.59 81.3202 11.78 81.7002 12.16C82.0802 12.54 82.2702 12.92 82.2702 13.49C83.0302 12.73 83.7902 12.35 84.7402 11.97C85.6902 11.59 86.6402 11.4 87.7802 11.4C89.1102 11.4 90.2502 11.59 91.3902 12.16C92.5302 12.73 93.2902 13.49 94.0502 14.44C94.8102 13.49 95.7602 12.73 96.9002 12.16C98.0402 11.59 99.3702 11.4 100.7 11.4C103.36 11.21 105.26 11.97 106.59 13.49Z" fill="#F2BC2B"/>
<path d="M119.32 31.35C117.61 30.4 116.47 29.07 115.52 27.55C114.57 25.84 114.19 24.13 114.19 22.04C114.19 19.95 114.57 18.05 115.52 16.34C116.47 14.63 117.61 13.49 119.32 12.54C121.03 11.59 122.74 11.21 124.83 11.21C126.92 11.21 128.63 11.59 130.34 12.54C132.05 13.49 133.19 14.82 134.14 16.34C135.09 18.05 135.47 19.76 135.47 22.04C135.47 24.13 135.09 26.03 134.14 27.55C133.19 29.26 132.05 30.4 130.34 31.35C128.63 32.3 126.92 32.68 124.83 32.68C122.93 32.87 121.03 32.3 119.32 31.35ZM128.44 28.31C129.58 27.74 130.34 26.79 130.91 25.65C131.48 24.51 131.86 23.37 131.86 21.85C131.86 20.52 131.48 19.19 130.91 18.05C130.34 16.91 129.58 16.15 128.44 15.39C127.3 14.82 126.16 14.44 124.83 14.44C123.5 14.44 122.36 14.82 121.22 15.39C120.08 15.96 119.32 16.91 118.75 18.05C118.18 19.19 117.8 20.33 117.8 21.85C117.8 23.18 118.18 24.51 118.75 25.65C119.32 26.79 120.08 27.55 121.22 28.31C122.36 28.88 123.5 29.26 124.83 29.26C126.35 29.26 127.49 29.07 128.44 28.31Z" fill="#F2BC2B"/>
<path d="M145.73 31.35C144.02 30.4 142.88 29.07 141.93 27.55C140.98 25.84 140.6 24.13 140.6 22.04C140.6 19.95 140.98 18.05 141.93 16.34C142.88 14.63 144.02 13.49 145.73 12.54C147.44 11.59 149.15 11.21 151.24 11.21C153.33 11.21 155.04 11.59 156.75 12.54C158.46 13.49 159.6 14.82 160.55 16.34C161.5 18.05 161.88 19.76 161.88 22.04C161.88 24.13 161.5 26.03 160.55 27.55C159.6 29.26 158.46 30.4 156.75 31.35C155.04 32.3 153.33 32.68 151.24 32.68C149.15 32.87 147.25 32.3 145.73 31.35ZM154.85 28.31C155.99 27.74 156.75 26.79 157.32 25.65C157.89 24.51 158.27 23.37 158.27 21.85C158.27 20.52 157.89 19.19 157.32 18.05C156.75 16.91 155.99 16.15 154.85 15.39C153.71 14.82 152.57 14.44 151.24 14.44C149.91 14.44 148.77 14.82 147.63 15.39C146.49 15.96 145.73 16.91 145.16 18.05C144.59 19.19 144.21 20.33 144.21 21.85C144.21 23.18 144.59 24.51 145.16 25.65C145.73 26.79 146.49 27.55 147.63 28.31C148.77 28.88 149.91 29.26 151.24 29.26C152.57 29.26 153.71 29.07 154.85 28.31Z" fill="#F2BC2B"/>
<path d="M187.72 2.84998C188.1 3.22998 188.29 3.60999 188.29 4.36999V22.04C188.29 24.13 187.72 25.84 186.96 27.55C186.01 29.26 184.68 30.4 183.16 31.35C181.45 32.3 179.74 32.68 177.65 32.68C175.56 32.68 173.85 32.3 172.14 31.35C170.43 30.4 169.29 29.07 168.34 27.55C167.39 25.84 167.01 24.13 167.01 22.04C167.01 19.95 167.39 18.24 168.34 16.53C169.29 14.82 170.43 13.68 171.95 12.73C173.47 11.78 175.18 11.4 177.08 11.4C178.6 11.4 179.93 11.78 181.26 12.35C182.59 12.92 183.73 13.87 184.49 15.01V4.55998C184.49 3.98998 184.68 3.41998 185.06 3.03998C185.44 2.65998 185.82 2.46999 186.39 2.46999C186.77 2.27999 187.34 2.46998 187.72 2.84998ZM181.07 28.31C182.21 27.74 182.97 26.79 183.54 25.65C184.11 24.51 184.49 23.37 184.49 21.85C184.49 20.52 184.11 19.19 183.54 18.05C182.97 16.91 182.21 16.15 181.07 15.39C179.93 14.82 178.79 14.44 177.46 14.44C176.13 14.44 174.99 14.82 173.85 15.39C172.71 15.96 171.95 16.91 171.38 18.05C170.81 19.19 170.43 20.33 170.43 21.85C170.43 23.18 170.81 24.51 171.38 25.65C171.95 26.79 172.9 27.55 173.85 28.31C174.99 28.88 176.13 29.26 177.46 29.26C178.79 29.26 179.93 29.07 181.07 28.31Z" fill="#F2BC2B"/>
<path d="M140.41 11.4C142.299 11.4 143.83 9.86881 143.83 7.98C143.83 6.09118 142.299 4.56 140.41 4.56C138.521 4.56 136.99 6.09118 136.99 7.98C136.99 9.86881 138.521 11.4 140.41 11.4Z" fill="#F2BC2B"/>
<path d="M161.88 11.4C163.769 11.4 165.3 9.86881 165.3 7.98C165.3 6.09118 163.769 4.56 161.88 4.56C159.992 4.56 158.46 6.09118 158.46 7.98C158.46 9.86881 159.992 11.4 161.88 11.4Z" fill="#F2BC2B"/>
<path d="M151.24 6.84C153.129 6.84 154.66 5.30882 154.66 3.42001C154.66 1.53119 153.129 0 151.24 0C149.352 0 147.82 1.53119 147.82 3.42001C147.82 5.30882 149.352 6.84 151.24 6.84Z" fill="#F2BC2B"/>
</svg>
