<svg width="259" height="256" viewBox="0 0 259 256" fill="none" xmlns="http://www.w3.org/2000/svg">
<path d="M98.4455 232.726C96.3095 232.098 94.8701 231.074 94.1273 229.654C93.5058 228.514 93.3951 227.23 93.7953 225.8C94.2088 224.395 94.9975 223.375 96.1615 222.74C97.5735 221.954 99.3382 221.873 101.455 222.496L105.643 223.728L107.09 218.809C107.173 218.528 107.348 218.315 107.614 218.17C107.881 218.024 108.164 217.996 108.464 218.084C108.745 218.166 108.959 218.341 109.104 218.608C109.25 218.875 109.281 219.149 109.198 219.43L105.055 233.511C104.973 233.792 104.798 234.005 104.531 234.15C104.259 234.315 103.982 234.355 103.701 234.273L98.4455 232.726ZM101.073 224.521C99.4994 224.058 98.2572 224.059 97.3468 224.524C96.6303 224.883 96.1491 225.515 95.9033 226.42C95.4843 227.844 95.9179 229 97.2041 229.887C97.7111 230.24 98.3834 230.55 99.2211 230.817L103.212 231.991L105.064 225.695L101.073 224.521Z" fill="black"/>
<path d="M81.3999 220.388C79.9407 220.213 78.5922 219.753 77.3543 219.007C75.9549 218.189 75.1187 217.123 74.8458 215.809C74.5882 214.663 74.7763 213.529 75.41 212.406L78.8404 206.539C78.9882 206.286 79.2176 206.126 79.5283 206.058C79.8222 205.981 80.1041 206.022 80.3738 206.18C80.6268 206.327 80.7917 206.548 80.8688 206.842C80.9458 207.136 80.9104 207.409 80.7626 207.662L80.4521 208.194C81.0497 208.023 81.7591 207.951 82.5801 207.978C83.3912 208.023 84.2774 208.326 85.2384 208.888C86.1995 209.45 86.8378 210.196 87.1532 211.127C87.4757 212.085 87.3658 213.027 86.8236 213.955C86.2223 214.983 85.3614 215.566 84.2408 215.702C83.0231 215.85 81.6436 215.462 80.1022 214.539L77.5983 213.075L77.4948 213.252C76.9527 214.179 76.7959 214.97 77.0244 215.624C77.2361 216.268 77.814 216.866 78.7582 217.418C79.5507 217.881 80.5633 218.258 81.796 218.549C81.9169 218.575 82.0532 218.632 82.2049 218.72C82.3398 218.799 82.4437 218.95 82.5166 219.174C82.5797 219.415 82.5309 219.691 82.3703 220.005C82.183 220.325 81.8595 220.453 81.3999 220.388ZM84.7937 213.073C85.4443 211.96 85.0312 210.984 83.5544 210.143C82.9137 209.768 82.2264 209.57 81.4925 209.548C80.7319 209.534 80.0697 209.622 79.5057 209.812L78.4855 211.557L80.7112 212.859C81.6891 213.43 82.5303 213.752 83.2345 213.825C83.929 213.914 84.4487 213.663 84.7937 213.073Z" fill="black"/>
<path d="M62.2985 205.432C60.4513 205.796 59.0112 205.515 57.9783 204.59L57.891 204.512C57.6727 204.317 57.5626 204.074 57.5604 203.783C57.5307 203.495 57.6201 203.234 57.8286 203.001C58.0371 202.768 58.2865 202.651 58.5769 202.649C58.8542 202.661 59.1092 202.771 59.342 202.98L59.4293 203.058C60.0258 203.592 60.6871 203.923 61.4133 204.049C62.1394 204.175 62.8711 204.148 63.6081 203.969L68.4754 198.536C68.6708 198.317 68.9203 198.2 69.2236 198.183C69.527 198.167 69.7878 198.256 70.006 198.451C70.2243 198.647 70.3417 198.896 70.3584 199.2C70.3751 199.503 70.2857 199.764 70.0902 199.982L63.2292 207.642C63.0337 207.86 62.7916 207.984 62.5027 208.014C62.1863 208.045 61.9117 207.956 61.679 207.748C61.4607 207.552 61.3433 207.303 61.3266 207C61.3099 206.696 61.4058 206.428 61.6143 206.195L62.2985 205.432Z" fill="black"/>
<path d="M51.793 180.546C51.8567 180.304 52.006 180.096 52.2412 179.921C52.4607 179.758 52.7129 179.705 52.9978 179.761C53.2554 179.813 53.4599 179.941 53.6113 180.144C53.8443 180.458 53.9247 180.812 53.8525 181.206L51.8005 187.877L54.5695 188.411L57.0389 186.576C57.2741 186.402 57.542 186.336 57.8425 186.381C58.1431 186.425 58.3808 186.565 58.5555 186.8C58.7302 187.035 58.7954 187.303 58.751 187.604C58.7067 187.904 58.5669 188.142 58.3317 188.317L45.8203 197.611C45.5851 197.786 45.323 197.859 45.0341 197.83C44.7335 197.786 44.49 197.638 44.3037 197.387C44.129 197.152 44.0638 196.884 44.1082 196.584C44.1525 196.283 44.2923 196.045 44.5274 195.871L52.4059 190.018L44.7659 188.577C44.4577 188.489 44.2105 188.32 44.0241 188.069C43.8261 187.803 43.7804 187.545 43.887 187.295C43.9663 187.042 44.0765 186.863 44.2176 186.758C44.4998 186.548 44.8322 186.472 45.2148 186.528L49.7692 187.451L51.793 180.546Z" fill="black"/>
<path d="M23.1051 150.109C23.0349 149.824 23.0783 149.552 23.2354 149.292C23.3925 149.032 23.6228 148.864 23.9262 148.79L38.29 145.244C38.5744 145.174 38.8466 145.217 39.1067 145.374C39.3668 145.531 39.5319 145.752 39.6021 146.037C39.6723 146.321 39.6289 146.593 39.4718 146.853C39.3147 147.113 39.0939 147.279 38.8095 147.349L32.6373 148.872L34.8208 157.718L40.993 156.195C41.2774 156.124 41.5497 156.168 41.8097 156.325C42.0698 156.482 42.2373 156.712 42.3122 157.016C42.3824 157.3 42.3389 157.572 42.1818 157.832C42.0247 158.093 41.804 158.258 41.5196 158.328L27.1557 161.873C26.8713 161.944 26.5991 161.9 26.339 161.743C26.06 161.591 25.8853 161.372 25.8151 161.088C25.7449 160.803 25.7884 160.531 25.9455 160.271C26.0979 159.992 26.3258 159.815 26.6292 159.74L32.8298 158.21L30.6463 149.364L24.4457 150.894C24.1613 150.965 23.889 150.921 23.6289 150.764C23.3499 150.612 23.1753 150.393 23.1051 150.109Z" fill="black"/>
<path d="M26.3969 132.61C25.8281 131.255 25.5627 129.855 25.6007 128.41C25.6213 126.789 26.1354 125.536 27.1429 124.65C28.0124 123.861 29.0917 123.464 30.3809 123.461L37.1772 123.548C37.4702 123.551 37.7226 123.672 37.9344 123.909C38.1465 124.126 38.2506 124.391 38.2466 124.704C38.2429 124.997 38.1322 125.249 37.9146 125.462C37.6971 125.674 37.4418 125.778 37.1489 125.774L36.5337 125.766C36.9774 126.202 37.39 126.783 37.7713 127.511C38.1332 128.238 38.307 129.158 38.2929 130.271C38.2787 131.385 37.9446 132.308 37.2907 133.042C36.617 133.795 35.743 134.165 34.6689 134.151C33.4776 134.136 32.5459 133.675 31.8738 132.768C31.1441 131.782 30.8005 130.391 30.8429 128.594L30.8799 125.694L30.6748 125.692C29.6007 125.678 28.8356 125.932 28.3797 126.453C27.9241 126.955 27.6893 127.753 27.6754 128.847C27.6637 129.765 27.8357 130.832 28.1913 132.047C28.2289 132.165 28.2465 132.312 28.2443 132.487C28.2423 132.644 28.1621 132.809 28.0036 132.982C27.8256 133.156 27.5607 133.25 27.2089 133.265C26.8378 133.26 26.5672 133.042 26.3969 132.61ZM34.4333 131.951C35.7222 131.967 36.3678 131.126 36.3699 129.427C36.3793 128.684 36.2124 127.989 35.8691 127.34C35.5065 126.671 35.1031 126.139 34.6588 125.742L32.6375 125.717L32.6047 128.294C32.5903 129.427 32.7254 130.318 33.0101 130.966C33.2753 131.614 33.7497 131.942 34.4333 131.951Z" fill="black"/>
<path d="M33.0899 106.145C33.148 105.878 33.2932 105.67 33.5256 105.52C33.7579 105.371 33.9982 105.323 34.2463 105.377C34.5135 105.435 34.7217 105.581 34.8711 105.813C35.0013 106.041 35.0374 106.289 34.9793 106.556L34.0204 110.965C33.9623 111.232 33.8266 111.442 33.6133 111.596C33.4042 111.73 33.1565 111.766 32.8702 111.704C32.603 111.646 32.4022 111.512 32.2678 111.303C32.1143 111.09 32.0687 110.84 32.131 110.554L33.0899 106.145Z" fill="black"/>
<path d="M46.5616 100.738L46.8731 100.105C47.0587 99.6324 47.1255 99.3019 47.0735 99.1137C47.0059 98.7514 46.6721 98.4525 46.0722 98.217L33.3914 93.2384C33.1005 93.1242 32.8943 92.9279 32.7729 92.6494C32.6514 92.3709 32.6478 92.0862 32.762 91.7953C32.8762 91.5044 33.0689 91.3073 33.3403 91.2041C33.5935 91.0936 33.8746 91.0991 34.1837 91.2204L46.919 96.2204C48.3552 96.7842 49.1063 97.6771 49.1721 98.8989C49.1677 99.3378 49.0619 99.8209 48.8549 100.348C48.6408 100.894 48.3861 101.329 48.0908 101.653C47.8065 102.003 47.4643 102.1 47.0644 101.943C46.8462 101.857 46.6783 101.697 46.5608 101.462C46.4614 101.234 46.4617 100.993 46.5616 100.738ZM29.8515 89.2678C30.1788 89.3963 30.4086 89.6124 30.5411 89.9163C30.6737 90.2201 30.6757 90.5356 30.5472 90.8628L30.4937 90.9992C30.3652 91.3264 30.149 91.5563 29.8452 91.6888C29.5485 91.8032 29.2366 91.7961 28.9093 91.6676L28.8275 91.6355C28.5003 91.507 28.2704 91.2909 28.1379 90.9871C28.0054 90.6832 27.9998 90.3768 28.1211 90.0677L28.1747 89.9314C28.3031 89.6041 28.5193 89.3743 28.8231 89.2417C29.1269 89.1092 29.4425 89.1072 29.7697 89.2357L29.8515 89.2678Z" fill="black"/>
<path d="M39.4381 80.0002C39.1494 79.8363 38.9731 79.6128 38.9093 79.3295C38.8285 79.0366 38.8653 78.7543 39.0195 78.4825C39.1738 78.2107 39.3926 78.0429 39.6758 77.9792C39.9421 77.9057 40.2196 77.951 40.5084 78.1149L49.4512 83.1913C49.706 83.3359 49.8786 83.5462 49.969 83.8221C50.0594 84.098 50.0275 84.3718 49.8732 84.6436C49.719 84.9154 49.4954 85.0917 49.2025 85.1724C48.9096 85.2532 48.6358 85.2213 48.381 85.0767L39.4381 80.0002ZM36.5221 75.5825C36.8278 75.7561 37.0248 76.0026 37.1129 76.3222C37.201 76.6417 37.1583 76.9543 36.9847 77.2601L36.9124 77.3875C36.7389 77.6932 36.4923 77.8901 36.1728 77.9782C35.8629 78.0494 35.5551 77.9982 35.2494 77.8246L35.1729 77.7812C34.8672 77.6077 34.6703 77.3611 34.5821 77.0416C34.494 76.7221 34.5319 76.4179 34.6958 76.1292L34.7681 76.0018C34.9417 75.6961 35.1882 75.4991 35.5078 75.411C35.8273 75.3229 36.1399 75.3656 36.4457 75.5392L36.5221 75.5825Z" fill="black"/>
<path d="M52.2533 62.9174C51.3411 63.9876 51.073 65.4914 51.4491 67.4288L56.9117 72.0849C57.1346 72.275 57.2582 72.5214 57.2823 72.8243C57.3065 73.1272 57.2235 73.3901 57.0335 73.6131C56.8434 73.836 56.597 73.9596 56.2941 73.9837C55.9912 74.0079 55.7283 73.9249 55.5053 73.7348L47.6793 67.0642C47.4415 66.8615 47.3042 66.6161 47.2674 66.3281C47.2432 66.0252 47.3325 65.7549 47.5352 65.5171C47.7253 65.2941 47.9717 65.1705 48.2746 65.1464C48.5626 65.1096 48.833 65.1989 49.0857 65.4143L49.8437 66.0604C49.7565 65.1391 49.7534 64.4051 49.8345 63.8583C50.016 62.8325 50.3728 62.0074 50.9049 61.3831C51.4497 60.7439 51.9898 60.306 52.5251 60.0694C53.0455 59.8201 53.5971 59.7 54.1797 59.7089C55.33 59.7142 56.4031 60.1413 57.399 60.9902L62.5941 65.4183C62.8171 65.6084 62.9406 65.8548 62.9647 66.1577C62.9889 66.4606 62.9059 66.7235 62.7159 66.9464C62.5258 67.1694 62.2794 67.293 61.9765 67.3171C61.6736 67.3412 61.4107 67.2583 61.1877 67.0682L56.1711 62.7922C55.4873 62.2094 54.8192 61.9093 54.1666 61.8921C53.4992 61.8621 52.8614 62.2039 52.2533 62.9174Z" fill="black"/>
<path d="M60.7787 44.4241C61.0821 44.178 61.4186 44.0813 61.788 44.1338C62.1603 44.1588 62.4695 44.323 62.7155 44.6264L63.6011 45.7188C64.13 46.3711 64.423 47.0891 64.48 47.8727C64.5599 48.4365 64.4906 49.0332 64.2721 49.663C64.2606 49.7729 64.1775 49.9031 64.023 50.0536C63.8712 50.1766 63.6931 50.2205 63.4885 50.1852C63.299 50.1376 63.1367 50.0304 63.0014 49.8635C62.8538 49.6815 62.8279 49.4635 62.9239 49.2097C63.074 48.8366 63.1416 48.4549 63.1269 48.0645C63.1121 47.6742 62.8956 47.2211 62.4774 46.7053L62.3864 46.7791C62.0981 47.0128 61.7754 47.111 61.4183 47.0737C61.0489 47.0212 60.7473 46.8508 60.5136 46.5626L60.4398 46.4715C60.2061 46.1833 60.1017 45.853 60.1268 45.4807C60.1518 45.1084 60.3084 44.8054 60.5967 44.5717L60.7787 44.4241Z" fill="black"/>
<path d="M83.2735 48.4552C84.8199 47.5791 85.3103 46.6616 84.7446 45.7026C84.5713 45.3967 84.2836 45.2454 83.8814 45.2488C83.4793 45.2521 83.0151 45.3242 82.4889 45.4652C81.9626 45.6062 81.3891 45.7627 80.7683 45.9348C80.1475 46.1069 79.5317 46.2088 78.9211 46.2404C78.3105 46.272 77.7464 46.1875 77.2287 45.987C76.7014 45.7694 76.2789 45.3802 75.9612 44.8194C75.6436 44.2586 75.459 43.7346 75.4075 43.2475C75.3464 42.7434 75.404 42.2506 75.5802 41.7691C75.9547 40.7264 76.7963 39.8344 78.1048 39.0932C79.1585 38.4963 80.2659 38.0935 81.4271 37.8846C81.6525 37.8467 81.8643 37.8839 82.0626 37.996C82.2682 38.0816 82.4239 38.2178 82.5298 38.4048C82.6261 38.5747 82.6374 38.7928 82.5637 39.059C82.507 39.3156 82.4022 39.4872 82.2493 39.5738C82.0963 39.6605 81.8901 39.7324 81.6307 39.7895C80.8524 39.9611 80.0639 40.273 79.2652 40.7255C78.4665 41.1779 77.9402 41.6556 77.6864 42.1586C77.4325 42.6615 77.4211 43.1169 77.6522 43.5248C77.8736 43.9157 78.1902 44.1179 78.602 44.1316C79.0041 44.1282 79.4731 44.0646 80.009 43.9406C80.5618 43.807 81.1439 43.6457 81.7551 43.4566C82.3833 43.2578 82.9942 43.1475 83.5878 43.1255C84.9931 43.0702 86.023 43.6203 86.6776 44.7759C87.1878 45.6766 87.2571 46.5914 86.8854 47.5203C86.5182 48.5364 85.6803 49.415 84.3718 50.1563C82.9783 50.9457 81.5426 51.3437 80.0648 51.3502C79.7307 51.3151 79.4877 51.1833 79.3359 50.9551C79.1915 50.7001 79.1477 50.4444 79.2043 50.1878C79.2684 49.9046 79.3854 49.7149 79.5553 49.6186C79.7253 49.5224 79.9799 49.4567 80.3192 49.4216C81.32 49.326 82.3048 49.0039 83.2735 48.4552Z" fill="black"/>
<path d="M114.354 22.3425C116.558 22.027 118.293 22.3607 119.558 23.3437C120.597 24.1223 121.231 25.2449 121.461 26.7115C121.668 28.1616 121.375 29.4171 120.579 30.478C119.621 31.7792 118.05 32.5862 115.865 32.8989L111.544 33.5175L112.27 38.5927C112.312 38.8827 112.242 39.1493 112.059 39.3924C111.877 39.6355 111.631 39.7792 111.322 39.8235C111.032 39.865 110.765 39.7947 110.522 39.6124C110.279 39.4302 110.137 39.1941 110.095 38.9041L108.016 24.3744C107.974 24.0844 108.044 23.8179 108.227 23.5747C108.406 23.3123 108.641 23.1603 108.931 23.1188L114.354 22.3425ZM115.372 30.8979C116.996 30.6654 118.125 30.1486 118.76 29.3474C119.263 28.723 119.438 27.9482 119.286 27.0229C119.075 25.5535 118.201 24.6823 116.662 24.4093C116.055 24.299 115.314 24.2964 114.442 24.4016L110.323 24.9911L111.253 31.4874L115.372 30.8979Z" fill="black"/>
<path d="M140.11 26.151C141.955 26.3485 143.378 27.0901 144.38 28.3759C145.379 29.6811 145.76 31.2638 145.521 33.124C145.32 35.0078 144.613 36.4741 143.4 37.5229C142.149 38.5675 140.601 38.9911 138.756 38.7936C136.892 38.5941 135.478 37.8535 134.516 36.5718C133.514 35.286 133.114 33.7013 133.316 31.8175C133.519 29.9143 134.246 28.4501 135.495 27.4249C136.707 26.3761 138.245 25.9514 140.11 26.151ZM136.391 35.5646C136.744 35.9363 137.146 36.2248 137.595 36.43C138.064 36.6374 138.522 36.7649 138.968 36.8127C139.415 36.8606 139.88 36.8317 140.362 36.7263C140.845 36.6208 141.299 36.4141 141.725 36.1061C142.663 35.4207 143.211 34.3401 143.369 32.8641C143.523 31.427 143.215 30.2646 142.446 29.3769C141.798 28.6397 140.948 28.2247 139.898 28.1319C138.169 27.9469 136.892 28.5958 136.065 30.0788C135.772 30.617 135.584 31.2745 135.5 32.0514C135.417 32.8282 135.462 33.5106 135.635 34.0988C135.808 34.6869 136.06 35.1755 136.391 35.5646Z" fill="black"/>
<path d="M159.721 32.5119C161.263 31.4314 162.693 31.1052 164.012 31.5335L164.124 31.5697C164.402 31.6602 164.601 31.8378 164.721 32.1024C164.865 32.3546 164.889 32.6292 164.792 32.9264C164.696 33.2237 164.515 33.432 164.25 33.5514C163.992 33.6522 163.714 33.6544 163.417 33.5579L163.305 33.5217C162.544 33.2744 161.805 33.24 161.09 33.4184C160.375 33.5969 159.717 33.9171 159.115 34.3788L156.862 41.3171C156.771 41.5957 156.591 41.804 156.32 41.942C156.049 42.08 155.775 42.1038 155.496 42.0133C155.217 41.9228 155.009 41.7422 154.871 41.4715C154.733 41.2008 154.709 40.9262 154.8 40.6475L157.976 30.867C158.066 30.5884 158.238 30.3771 158.49 30.233C158.766 30.0765 159.053 30.0465 159.351 30.143C159.629 30.2335 159.838 30.414 159.976 30.6847C160.114 30.9554 160.134 31.2394 160.038 31.5366L159.721 32.5119Z" fill="black"/>
<path d="M174.336 48.012C174.714 48.2148 174.995 48.3319 175.178 48.3633C175.387 48.3866 175.586 48.449 175.775 48.5504C175.965 48.6519 176.096 48.8216 176.167 49.0595C176.249 49.2802 176.211 49.537 176.054 49.8297C175.907 50.1051 175.663 50.2294 175.323 50.2023C174.573 50.1551 173.982 50.0162 173.552 49.7856C173.121 49.5551 172.739 49.3172 172.405 49.0719C172.079 48.853 171.804 48.5613 171.578 48.1967C171.043 47.3341 171.08 46.3346 171.688 45.1983L175.202 38.6385L173.704 37.8362C173.445 37.6979 173.382 37.4864 173.512 37.2017C173.576 37.0812 173.705 37.0061 173.898 36.9766L178.273 35.6969C178.458 35.6409 178.611 35.6452 178.731 35.7098C178.861 35.7571 178.937 35.8423 178.96 35.9652C178.983 36.0882 178.962 36.2099 178.897 36.3305L177.998 38.0092L180.4 39.2955C180.641 39.4246 180.797 39.6082 180.869 39.8461C180.941 40.0841 180.913 40.3235 180.784 40.5646C180.655 40.8056 180.471 40.9621 180.233 41.0341C179.995 41.1061 179.756 41.0775 179.515 40.9484L177.113 39.662L173.682 46.0669C173.397 46.6006 173.367 47.0498 173.592 47.4144C173.709 47.6099 173.957 47.8091 174.336 48.012Z" fill="black"/>
<path d="M197.973 47.5229L197.145 46.6809C196.67 46.3052 196.197 46.117 195.724 46.1165C195.278 46.1127 194.795 46.4402 194.274 47.0988L193.456 48.1326L195.822 50.0051C196.037 50.1748 196.158 50.3831 196.187 50.63C196.216 50.8769 196.145 51.1076 195.976 51.322C195.806 51.5365 195.59 51.652 195.328 51.6686C195.081 51.6974 194.858 51.633 194.659 51.4754L192.292 49.6029L186.457 56.9775C186.275 57.2073 186.033 57.3397 185.731 57.3749C185.445 57.4221 185.179 57.3488 184.934 57.1549C184.689 56.961 184.549 56.7131 184.514 56.4113C184.494 56.1217 184.575 55.8619 184.757 55.6322L190.592 48.2576L189.467 47.3668C189.252 47.1971 189.131 46.9888 189.102 46.7419C189.073 46.495 189.144 46.2643 189.313 46.0499C189.483 45.8354 189.691 45.7138 189.938 45.6851C190.2 45.6684 190.431 45.7389 190.63 45.8965L191.756 46.7873L192.629 45.6845C193.489 44.5971 194.456 44.0048 195.529 43.9076C196.41 43.8327 197.226 44.0922 197.977 44.6861C198.559 45.1467 199.013 45.7055 199.34 46.3627C199.51 46.7461 199.504 47.0527 199.322 47.2824C199.14 47.5122 198.92 47.6491 198.661 47.6932C198.401 47.7372 198.172 47.6805 197.973 47.5229Z" fill="black"/>
<path d="M208.845 62.7895C210.031 64.2157 210.537 65.739 210.36 67.3594C210.169 68.9922 209.341 70.3933 207.874 71.5625C206.418 72.7743 204.89 73.3347 203.289 73.2435C201.664 73.1223 200.258 72.3485 199.071 70.9223C197.872 69.481 197.373 67.9652 197.574 66.3749C197.75 64.7546 198.566 63.3385 200.023 62.1267C201.494 60.9024 203.035 60.3571 204.645 60.4908C206.245 60.582 207.645 61.3482 208.845 62.7895ZM199.621 66.9578C199.616 67.4704 199.703 67.9569 199.883 68.4171C200.075 68.8924 200.315 69.3027 200.602 69.648C200.89 69.9933 201.243 70.2962 201.663 70.5565C202.083 70.8169 202.553 70.9848 203.073 71.0602C204.223 71.2211 205.369 70.8268 206.51 69.8773C207.621 68.9529 208.209 67.9042 208.275 66.7314C208.324 65.7512 208.003 64.862 207.313 64.0637C206.201 62.7275 204.833 62.3039 203.207 62.7929C202.621 62.975 202.028 63.316 201.428 63.8157C200.827 64.3154 200.384 64.8365 200.099 65.3789C199.813 65.9214 199.654 66.4477 199.621 66.9578Z" fill="black"/>
<path d="M222.924 75.9421C223.197 75.791 223.472 75.7623 223.746 75.856C224.038 75.9403 224.26 76.1192 224.411 76.3928C224.562 76.6663 224.591 76.9405 224.497 77.2154C224.43 77.4978 224.259 77.7146 223.986 77.8656L210.341 85.3987C210.085 85.5403 209.811 85.5689 209.519 85.4847C209.236 85.4175 209.019 85.2472 208.868 84.9736C208.717 84.7 208.684 84.4173 208.768 84.1254C208.852 83.8334 209.023 83.6167 209.279 83.4751L222.924 75.9421Z" fill="black"/>
<path d="M224.545 91.5468C224.855 91.4291 225.14 91.4361 225.399 91.5678C225.676 91.6926 225.87 91.901 225.98 92.1933C226.091 92.4855 226.081 92.761 225.949 93.0197C225.835 93.2716 225.624 93.4564 225.313 93.574L215.697 97.2183C215.423 97.3222 215.151 97.3208 214.881 97.2143C214.611 97.1078 214.421 96.9085 214.31 96.6163C214.199 96.324 214.206 96.0394 214.331 95.7624C214.456 95.4853 214.655 95.2949 214.929 95.1911L224.545 91.5468ZM229.807 92.1216C229.478 92.2462 229.163 92.2404 228.86 92.1043C228.558 91.9682 228.345 91.7358 228.22 91.4071L228.168 91.2701C228.044 90.9413 228.049 90.6259 228.185 90.3236C228.328 90.0397 228.564 89.8354 228.893 89.7108L228.975 89.6797C229.304 89.5551 229.62 89.5608 229.922 89.6969C230.224 89.833 230.434 90.0563 230.552 90.3668L230.603 90.5038C230.728 90.8325 230.722 91.148 230.586 91.4502C230.45 91.7524 230.218 91.9659 229.889 92.0904L229.807 92.1216Z" fill="black"/>
<path d="M231.382 111.246C231.701 113.074 231.38 114.647 230.421 115.964C229.442 117.285 228.025 118.087 226.171 118.371C224.305 118.696 222.701 118.421 221.358 117.545C220.009 116.63 219.175 115.259 218.856 113.431C218.534 111.584 218.856 110.021 219.823 108.742C220.783 107.425 222.196 106.604 224.062 106.278C225.948 105.949 227.555 106.244 228.885 107.162C230.228 108.038 231.06 109.399 231.382 111.246ZM221.308 110.268C221.048 110.709 220.882 111.175 220.808 111.663C220.738 112.171 220.742 112.646 220.819 113.089C220.896 113.531 221.052 113.97 221.286 114.405C221.521 114.84 221.845 115.22 222.258 115.544C223.176 116.256 224.365 116.485 225.828 116.23C227.252 115.982 228.284 115.365 228.925 114.381C229.455 113.555 229.62 112.624 229.42 111.589C229.121 109.876 228.145 108.827 226.491 108.442C225.893 108.308 225.209 108.308 224.44 108.443C223.67 108.577 223.026 108.808 222.509 109.136C221.991 109.464 221.591 109.842 221.308 110.268Z" fill="black"/>
<path d="M234.705 152.521C234.11 155.13 232.76 157.005 230.657 158.148C229.739 158.66 228.757 158.967 227.712 159.069C226.663 159.191 225.643 159.138 224.653 158.913C223.663 158.687 222.721 158.292 221.828 157.727C220.931 157.182 220.179 156.48 219.574 155.621C218.174 153.679 217.771 151.403 218.366 148.795L219.441 144.082C219.506 143.796 219.668 143.572 219.925 143.411C220.182 143.249 220.453 143.201 220.739 143.266L234.935 146.503C235.221 146.569 235.444 146.73 235.606 146.987C235.787 147.249 235.845 147.522 235.78 147.808L234.705 152.521ZM220.424 148.994C219.981 150.936 220.197 152.628 221.07 154.069C221.948 155.491 223.3 156.411 225.128 156.827C226.957 157.244 228.574 157.002 229.982 156.101C231.394 155.181 232.321 153.75 232.764 151.808L233.533 148.437L221.193 145.623L220.424 148.994Z" fill="black"/>
<path d="M216.864 170.012C215.846 169.644 214.894 169.618 214.009 169.933C213.132 170.274 212.418 170.983 211.866 172.061C211.306 173.157 211.003 174.176 210.96 175.119C210.957 175.425 210.906 175.673 210.808 175.864C210.728 176.064 210.569 176.203 210.333 176.279C210.087 176.373 209.869 176.371 209.678 176.273C209.295 176.077 209.106 175.783 209.11 175.39C209.104 175.014 209.103 174.673 209.106 174.368C209.109 174.062 209.138 173.748 209.194 173.425C209.349 172.693 209.645 171.901 210.081 171.049C210.979 169.293 212.165 168.177 213.637 167.702C215.117 167.253 216.761 167.491 218.57 168.416C220.134 169.217 221.229 170.293 221.854 171.644C222.548 173.162 222.467 174.755 221.613 176.424C220.794 178.024 219.61 179.009 218.06 179.378C216.607 179.732 215.124 179.521 213.612 178.747C213.351 178.614 213.174 178.402 213.08 178.113C212.978 177.841 212.998 177.566 213.14 177.288L216.864 170.012ZM219.97 175.584C220.619 174.314 220.526 173.104 219.689 171.951C219.396 171.538 218.985 171.163 218.455 170.826L215.225 177.137C216.26 177.601 217.251 177.637 218.198 177.244C218.97 176.937 219.56 176.383 219.97 175.584Z" fill="black"/>
<path d="M201.339 188.035C200.212 189.41 200.086 190.443 200.96 191.133C201.232 191.356 201.554 191.393 201.928 191.245C202.302 191.097 202.709 190.862 203.149 190.541C203.589 190.22 204.067 189.867 204.584 189.482C205.101 189.098 205.639 188.781 206.197 188.531C206.755 188.281 207.312 188.156 207.867 188.157C208.437 188.169 208.971 188.38 209.47 188.788C209.969 189.197 210.33 189.619 210.554 190.055C210.792 190.503 210.917 190.983 210.926 191.496C210.953 192.603 210.49 193.739 209.537 194.902C208.769 195.839 207.882 196.614 206.874 197.228C206.677 197.345 206.466 197.386 206.241 197.353C206.019 197.348 205.824 197.277 205.658 197.141C205.507 197.017 205.418 196.818 205.39 196.543C205.351 196.283 205.386 196.085 205.498 195.949C205.609 195.813 205.776 195.672 205.997 195.525C206.661 195.084 207.284 194.509 207.865 193.798C208.447 193.088 208.766 192.453 208.821 191.892C208.876 191.332 208.723 190.903 208.36 190.606C208.012 190.321 207.644 190.247 207.255 190.382C206.881 190.531 206.467 190.759 206.012 191.068C205.544 191.392 205.06 191.753 204.558 192.15C204.044 192.561 203.514 192.885 202.968 193.119C201.677 193.678 200.518 193.536 199.491 192.695C198.69 192.039 198.296 191.211 198.307 190.21C198.283 189.13 198.748 188.008 199.701 186.845C200.715 185.606 201.911 184.717 203.287 184.178C203.611 184.09 203.885 184.125 204.109 184.283C204.336 184.469 204.469 184.692 204.509 184.951C204.551 185.239 204.51 185.458 204.387 185.609C204.263 185.76 204.049 185.913 203.745 186.068C202.846 186.518 202.044 187.174 201.339 188.035Z" fill="black"/>
<path d="M197.408 205.793C197.625 206.044 197.716 206.314 197.681 206.602C197.659 206.906 197.53 207.159 197.294 207.364C197.057 207.568 196.795 207.653 196.507 207.618C196.231 207.598 195.985 207.462 195.768 207.211L189.044 199.43C188.852 199.209 188.76 198.953 188.767 198.663C188.775 198.372 188.897 198.125 189.133 197.921C189.37 197.716 189.639 197.625 189.942 197.647C190.245 197.669 190.493 197.791 190.684 198.013L197.408 205.793ZM198.675 210.933C198.445 210.667 198.342 210.369 198.366 210.038C198.39 209.707 198.535 209.427 198.801 209.197L198.912 209.102C199.178 208.872 199.476 208.769 199.807 208.793C200.122 208.83 200.395 208.981 200.625 209.247L200.683 209.314C200.913 209.58 201.015 209.878 200.991 210.208C200.967 210.539 200.83 210.813 200.578 211.03L200.468 211.126C200.202 211.356 199.903 211.459 199.573 211.434C199.242 211.41 198.962 211.265 198.732 210.999L198.675 210.933Z" fill="black"/>
<path d="M176.972 219.326L177.261 219.835C177.406 220.09 177.447 220.359 177.383 220.642C177.312 220.952 177.15 221.18 176.895 221.324C176.64 221.469 176.366 221.502 176.074 221.421C175.764 221.35 175.531 221.179 175.377 220.907L170.075 211.587C169.071 209.821 168.728 208.23 169.045 206.814C169.353 205.38 170.288 204.219 171.85 203.331C173.514 202.384 175.215 201.9 176.955 201.876C177.279 201.894 177.519 202.039 177.674 202.31C177.828 202.582 177.882 202.854 177.835 203.128C177.762 203.394 177.641 203.576 177.471 203.672C177.301 203.769 177.134 203.83 176.969 203.857C175.617 203.929 174.322 204.318 173.082 205.023C170.943 206.24 170.516 207.977 171.8 210.235L172.597 211.636C172.983 210.023 173.872 208.821 175.264 208.029C176.588 207.275 177.982 207.078 179.444 207.437C181.127 207.828 182.451 208.873 183.417 210.57C184.392 212.285 184.618 213.965 184.094 215.612C183.655 217.052 182.752 218.15 181.384 218.906C180.026 219.678 178.555 219.818 176.972 219.326ZM176.016 217.645C176.638 217.831 177.29 217.931 177.974 217.947C178.64 217.973 179.278 217.812 179.89 217.464C180.501 217.116 180.984 216.741 181.338 216.337C181.676 215.942 181.919 215.501 182.067 215.012C182.38 213.98 182.193 212.862 181.507 211.657C180.483 209.857 179.114 209.108 177.398 209.41C176.87 209.508 176.3 209.731 175.689 210.079C174.67 210.658 173.963 211.746 173.567 213.342L176.016 217.645Z" fill="black"/>
<path d="M156.307 227.266C157.661 226.885 158.721 225.785 159.488 223.967L157.544 217.057C157.464 216.775 157.499 216.502 157.647 216.237C157.796 215.972 158.011 215.8 158.293 215.72C158.575 215.641 158.849 215.675 159.114 215.824C159.379 215.973 159.551 216.188 159.63 216.47L162.416 226.369C162.5 226.67 162.478 226.95 162.348 227.21C162.199 227.475 161.975 227.649 161.674 227.734C161.392 227.813 161.118 227.779 160.853 227.63C160.594 227.5 160.419 227.276 160.329 226.956L160.059 225.997C159.619 226.811 159.212 227.422 158.84 227.831C158.118 228.582 157.363 229.069 156.573 229.291C155.764 229.519 155.072 229.582 154.496 229.48C153.925 229.397 153.4 229.19 152.921 228.858C151.968 228.213 151.315 227.261 150.96 226.001L149.111 219.43C149.032 219.148 149.066 218.875 149.215 218.609C149.364 218.344 149.579 218.172 149.861 218.093C150.143 218.014 150.417 218.048 150.682 218.197C150.947 218.345 151.119 218.561 151.198 218.843L152.984 225.188C153.227 226.053 153.615 226.674 154.147 227.052C154.685 227.449 155.405 227.52 156.307 227.266Z" fill="black"/>
</svg>
