<svg width="109" height="93" viewBox="0 0 109 93" fill="none" xmlns="http://www.w3.org/2000/svg">
<path fill-rule="evenodd" clip-rule="evenodd" d="M50.7887 28.5001L45.4642 41.3821L44.54 42.0001H41.72L40.7969 40.6156L57.1169 1.43555L58.04 0.820068H59.66L60.5821 1.43315L77.0221 40.6132L76.1 42.0001H73.04L72.1173 41.3856L66.734 28.5001H50.7887ZM64.9434 24.1601L59.575 11.2C59.2648 10.4448 58.9898 9.76852 58.7504 9.17212C58.4901 9.8925 58.2427 10.5458 58.0085 11.1315L58.0031 11.1447L52.58 24.1601H64.9434ZM31.9917 74.5V41.94H31.9918V74.5C31.9918 80.34 28.9497 85.36 22.8655 89.56H22.8653C28.9496 85.36 31.9917 80.34 31.9917 74.5ZM22.8655 89.56L24.1963 91.36L24.1963 91.36L22.8655 89.56ZM30.8548 40.94L30.9354 41.0179V74.5C30.9354 79.9488 28.1222 84.6936 22.243 88.752L22 90.1335L23.3309 91.9335L24.8087 92.1748C27.0413 90.6709 28.8901 89.212 30.3413 87.7965C31.8614 86.3138 33.1509 84.2684 34.2389 81.714C35.3553 79.0928 35.9 76.1017 35.9 72.76V40L35.78 39.8864V2L34.7453 1H31.8895L30.8548 2V17.8H4.92518V2L3.89048 1H1.0347L0 2V40.94L1.0347 41.94H3.89048L4.92518 40.94V22.26H30.8548V40.94ZM66.6952 86.1134H65.4222L40.6365 58.5787V57.1645L42.3933 55.2129H43.6663L68.4519 82.7476V84.1618L66.6952 86.1134ZM74.2 92.0001L73.2 91.0001V51.8201L74.2 50.8201H75.52L76.2746 51.164L101.829 80.5575L101.832 80.5609C102.515 81.3332 103.156 82.1068 103.755 82.8819C103.745 82.1171 103.74 81.2425 103.74 80.2601V52.0601L104.74 51.0601H107.5L108.5 52.0601V91.2401L107.5 92.2401H106.18L105.426 91.8971L79.3861 62.0171L79.367 61.9946L77.9453 60.2626C77.9552 61.043 77.96 61.9497 77.96 62.9801V91.0001L76.96 92.0001H74.2ZM58.5055 6.83916C58.5696 6.64972 58.6344 6.4567 58.7 6.2601L58.7 6.26007C58.6344 6.45668 58.5696 6.64971 58.5055 6.83916Z" fill="black"/>
</svg>
